<mxfile host="app.diagrams.net" agent="Mozilla/5.0 (Windows NT 10.0; Win64; x64) AppleWebKit/537.36 (KHTML, like Gecko) Chrome/140.0.0.0 Safari/537.36" version="28.2.1">
  <diagram name="Page-1" id="OpK59a4Q53rtZ325keFq">
    <mxGraphModel dx="1103" dy="639" grid="1" gridSize="10" guides="1" tooltips="1" connect="1" arrows="1" fold="1" page="1" pageScale="1" pageWidth="850" pageHeight="1100" math="0" shadow="0">
      <root>
        <mxCell id="0" />
        <mxCell id="1" parent="0" />
        <mxCell id="1WX5pRuSjiUeIAnt1c-p-15" value="" style="edgeStyle=none;rounded=0;orthogonalLoop=1;jettySize=auto;html=1;" edge="1" parent="1" source="1WX5pRuSjiUeIAnt1c-p-1" target="1WX5pRuSjiUeIAnt1c-p-14">
          <mxGeometry relative="1" as="geometry" />
        </mxCell>
        <mxCell id="1WX5pRuSjiUeIAnt1c-p-1" value="Devolp" style="ellipse;whiteSpace=wrap;html=1;aspect=fixed;" vertex="1" parent="1">
          <mxGeometry x="390" y="30" width="80" height="80" as="geometry" />
        </mxCell>
        <mxCell id="1WX5pRuSjiUeIAnt1c-p-21" value="" style="edgeStyle=none;rounded=0;orthogonalLoop=1;jettySize=auto;html=1;" edge="1" parent="1" source="1WX5pRuSjiUeIAnt1c-p-2" target="1WX5pRuSjiUeIAnt1c-p-20">
          <mxGeometry relative="1" as="geometry" />
        </mxCell>
        <mxCell id="1WX5pRuSjiUeIAnt1c-p-2" value="Deploy" style="ellipse;whiteSpace=wrap;html=1;aspect=fixed;" vertex="1" parent="1">
          <mxGeometry x="220" y="350" width="80" height="80" as="geometry" />
        </mxCell>
        <mxCell id="1WX5pRuSjiUeIAnt1c-p-19" value="" style="edgeStyle=none;rounded=0;orthogonalLoop=1;jettySize=auto;html=1;" edge="1" parent="1" source="1WX5pRuSjiUeIAnt1c-p-3" target="1WX5pRuSjiUeIAnt1c-p-2">
          <mxGeometry relative="1" as="geometry" />
        </mxCell>
        <mxCell id="1WX5pRuSjiUeIAnt1c-p-3" value="Relase" style="ellipse;whiteSpace=wrap;html=1;aspect=fixed;" vertex="1" parent="1">
          <mxGeometry x="370" y="350" width="80" height="80" as="geometry" />
        </mxCell>
        <mxCell id="1WX5pRuSjiUeIAnt1c-p-18" value="" style="edgeStyle=none;rounded=0;orthogonalLoop=1;jettySize=auto;html=1;" edge="1" parent="1" source="1WX5pRuSjiUeIAnt1c-p-4" target="1WX5pRuSjiUeIAnt1c-p-17">
          <mxGeometry relative="1" as="geometry" />
        </mxCell>
        <mxCell id="1WX5pRuSjiUeIAnt1c-p-4" value="Build" style="ellipse;whiteSpace=wrap;html=1;aspect=fixed;" vertex="1" parent="1">
          <mxGeometry x="460" y="240" width="80" height="80" as="geometry" />
        </mxCell>
        <mxCell id="1WX5pRuSjiUeIAnt1c-p-16" value="" style="edgeStyle=none;rounded=0;orthogonalLoop=1;jettySize=auto;html=1;" edge="1" parent="1" source="1WX5pRuSjiUeIAnt1c-p-5" target="1WX5pRuSjiUeIAnt1c-p-4">
          <mxGeometry relative="1" as="geometry" />
        </mxCell>
        <mxCell id="1WX5pRuSjiUeIAnt1c-p-5" value="Test&lt;div&gt;Mode&lt;/div&gt;" style="ellipse;whiteSpace=wrap;html=1;aspect=fixed;" vertex="1" parent="1">
          <mxGeometry x="460" y="110" width="80" height="80" as="geometry" />
        </mxCell>
        <mxCell id="1WX5pRuSjiUeIAnt1c-p-22" value="" style="edgeStyle=none;rounded=0;orthogonalLoop=1;jettySize=auto;html=1;" edge="1" parent="1" source="1WX5pRuSjiUeIAnt1c-p-7" target="1WX5pRuSjiUeIAnt1c-p-8">
          <mxGeometry relative="1" as="geometry" />
        </mxCell>
        <mxCell id="1WX5pRuSjiUeIAnt1c-p-7" value="Operator" style="ellipse;whiteSpace=wrap;html=1;aspect=fixed;" vertex="1" parent="1">
          <mxGeometry x="130" y="250" width="80" height="80" as="geometry" />
        </mxCell>
        <mxCell id="1WX5pRuSjiUeIAnt1c-p-8" value="Monitor" style="ellipse;whiteSpace=wrap;html=1;aspect=fixed;" vertex="1" parent="1">
          <mxGeometry x="130" y="100" width="80" height="80" as="geometry" />
        </mxCell>
        <mxCell id="1WX5pRuSjiUeIAnt1c-p-10" value="" style="edgeStyle=orthogonalEdgeStyle;rounded=0;orthogonalLoop=1;jettySize=auto;html=1;" edge="1" parent="1" source="1WX5pRuSjiUeIAnt1c-p-9" target="1WX5pRuSjiUeIAnt1c-p-1">
          <mxGeometry relative="1" as="geometry" />
        </mxCell>
        <mxCell id="1WX5pRuSjiUeIAnt1c-p-9" value="Plan" style="ellipse;whiteSpace=wrap;html=1;aspect=fixed;" vertex="1" parent="1">
          <mxGeometry x="250" y="30" width="80" height="80" as="geometry" />
        </mxCell>
        <mxCell id="1WX5pRuSjiUeIAnt1c-p-13" value="DEVOPS&lt;div&gt;Life Cycle&lt;/div&gt;" style="ellipse;whiteSpace=wrap;html=1;aspect=fixed;" vertex="1" parent="1">
          <mxGeometry x="280" y="180" width="110" height="110" as="geometry" />
        </mxCell>
        <mxCell id="1WX5pRuSjiUeIAnt1c-p-14" value="" style="shape=waypoint;sketch=0;size=6;pointerEvents=1;points=[];fillColor=default;resizable=0;rotatable=0;perimeter=centerPerimeter;snapToPoint=1;" vertex="1" parent="1">
          <mxGeometry x="470" y="100" width="20" height="20" as="geometry" />
        </mxCell>
        <mxCell id="1WX5pRuSjiUeIAnt1c-p-17" value="" style="shape=waypoint;sketch=0;size=6;pointerEvents=1;points=[];fillColor=default;resizable=0;rotatable=0;perimeter=centerPerimeter;snapToPoint=1;" vertex="1" parent="1">
          <mxGeometry x="430" y="350" width="20" height="20" as="geometry" />
        </mxCell>
        <mxCell id="1WX5pRuSjiUeIAnt1c-p-20" value="" style="shape=waypoint;sketch=0;size=6;pointerEvents=1;points=[];fillColor=default;resizable=0;rotatable=0;perimeter=centerPerimeter;snapToPoint=1;" vertex="1" parent="1">
          <mxGeometry x="160" y="320" width="20" height="20" as="geometry" />
        </mxCell>
        <mxCell id="1WX5pRuSjiUeIAnt1c-p-27" value="" style="endArrow=classic;html=1;rounded=0;entryX=0;entryY=0.5;entryDx=0;entryDy=0;" edge="1" parent="1" target="1WX5pRuSjiUeIAnt1c-p-9">
          <mxGeometry width="50" height="50" relative="1" as="geometry">
            <mxPoint x="190" y="110" as="sourcePoint" />
            <mxPoint x="240" y="60" as="targetPoint" />
          </mxGeometry>
        </mxCell>
      </root>
    </mxGraphModel>
  </diagram>
</mxfile>
